<svg viewBox="0 0 10 16" xmlns="http://www.w3.org/2000/svg" fill-rule="evenodd" clip-rule="evenodd" stroke-linejoin="round" stroke-miterlimit="2"><path d="M16 9.5V25a6 6 0 0 0 6 6h3.939a2 2 0 0 1 1.94 1.515c.08.322.121.652.121.984V43a6 6 0 0 0 6 6h2.5a3.5 3.5 0 0 0 3.5-3.5V37a6 6 0 0 0-6-6h-3.938a2 2 0 0 1-1.941-1.515 4.079 4.079 0 0 1-.121-.984V13a6 6 0 0 0-6-6h-3.5A2.5 2.5 0 0 0 16 9.5z" fill="url(#_Linear1)" fill-rule="nonzero" transform="matrix(.375 0 0 .375 -5.5 -2.5)"/><g opacity=".8" fill="rgb(52,64,83)" fill-rule="nonzero"><path d="M4.91 1.745c-.234 5.383-.99 6.84-2.96 7.234.24.09.5.143.773.146h1.509a.75.75 0 0 1 .723.568c.03.12.045.245.045.37v3.571a2.229 2.229 0 0 0 .101.66l.007.022a2.312 2.312 0 0 0 .069.185" opacity=".8"/><path d="M5.177 14.5a1.919 1.919 0 0 0 .047.104c.344-3.78 1.153-4.952 2.87-5.316a2.243 2.243 0 0 0-.844-.163H5.773a.75.75 0 0 1-.728-.568A1.53 1.53 0 0 1 5 8.187V2.376a2.256 2.256 0 0 0-.09-.63m4.509 9.03c-.263 2.855-.98 4.32-2.866 4.99.22.071.454.11.697.11h.937c.393 0 .745-.172.986-.445.12-.16.216-.338.283-.53.029-.107.044-.22.044-.338v-3.187c0-.208-.028-.41-.081-.6z" opacity=".8"/></g><defs><linearGradient id="_Linear1" x2="1" gradientUnits="userSpaceOnUse" gradientTransform="rotate(81.203 6.667 16.042) scale(42.5002)"><stop offset="0" stop-color="rgb(60,198,198)"/><stop offset=".36" stop-color="rgb(68,154,255)"/><stop offset=".57" stop-color="rgb(46,122,241)"/><stop offset=".65" stop-color="rgb(72,123,243)"/><stop offset="1" stop-color="rgb(64,98,209)"/></linearGradient></defs></svg>