<svg width="91" height="15" fill="none" xmlns="http://www.w3.org/2000/svg"><g clip-path="url(#clip0)"><path d="M2.835 14.39V8.842h5.708v5.548h2.854V1.044H8.543v5.09H2.835v-5.09H0V14.39h2.835zm14.58.19c2.759 0 4.885-2.078 4.885-4.861 0-2.784-2.126-4.881-4.884-4.881-2.778 0-4.885 2.097-4.885 4.88 0 2.784 2.107 4.862 4.885 4.862zm0-2.574c-1.283 0-2.24-.991-2.24-2.287 0-1.335.957-2.307 2.24-2.307 1.265 0 2.242.972 2.242 2.307 0 1.296-.977 2.287-2.241 2.287zm9.887 2.574c1.092 0 1.973-.514 2.547-1.43v1.24h2.701V5.028h-2.7v4.938c0 1.24-.748 2.04-1.859 2.04-1.13 0-1.857-.8-1.857-2.04V5.028h-2.701v5.282c0 2.65 1.456 4.27 3.869 4.27zm9.809-.19V9.776c0-1.659 1.092-2.345 1.992-2.345.421 0 .843.076 1.206.228l.307-2.611c-.287-.134-.747-.21-1.245-.21-.824 0-1.858.553-2.26 1.353V5.028h-2.7v9.362h2.7zm9.708.19c3.141 0 4.941-2.04 4.941-4.156 0-4.862-6.857-3.489-6.857-5.758 0-.648.652-1.087 1.61-1.087 1.091 0 2.394.572 3.39 1.545l1.647-2.23C50.535 1.73 48.466.853 46.742.853c-2.758 0-4.693 1.753-4.693 4.022 0 4.804 6.8 3.317 6.8 5.567 0 .858-.823 1.392-2.03 1.392-1.59 0-2.72-.8-3.735-1.85l-1.82 2.06c1.15 1.448 3.486 2.535 5.555 2.535zm10.507-.038c.498 0 1.034-.095 1.379-.267l-.134-2.383a2.89 2.89 0 0 1-.843.133c-.785 0-1.456-.552-1.456-1.43V7.584h2.318V5.028h-2.318V2.57h-2.7v2.46h-1.744v2.554h1.743v3.146c0 2.421 1.552 3.813 3.755 3.813zm6.254.038c1.322 0 2.337-.553 2.988-1.525v1.335h2.7V5.028h-2.7v1.335c-.651-.972-1.666-1.525-2.988-1.525-2.432 0-4.367 2.173-4.367 4.861 0 2.689 1.935 4.881 4.367 4.881zm.632-2.574c-1.302 0-2.356-1.01-2.356-2.307 0-1.277 1.054-2.306 2.356-2.306 1.322 0 2.356 1.01 2.356 2.306 0 1.316-1.034 2.307-2.356 2.307zm11.311 2.574c2.012 0 3.716-1.067 4.425-2.688l-2.394-1.068c-.364.744-1.111 1.182-2.03 1.182-1.341 0-2.299-.991-2.299-2.287 0-1.316.958-2.307 2.299-2.307.823 0 1.513.4 1.857 1.03l2.28-1.297c-.747-1.392-2.299-2.307-4.138-2.307-2.815 0-4.941 2.097-4.941 4.88 0 2.784 2.126 4.862 4.942 4.862zm8.017-.19v-4.195l3.41 4.195h3.466l-4.213-4.843 3.907-4.519h-3.314l-3.256 3.87V1.045h-2.7V14.39h2.7z" fill="#344053"/></g><defs><clipPath id="clip0"><path fill="#fff" transform="translate(0 .688)" d="M0 0H90.563V14.063H0z"/></clipPath></defs></svg>